<svg width="24" height="24" viewBox="0 0 24 24" fill="none" xmlns="http://www.w3.org/2000/svg">
<path d="M11.25 6.75C11.25 6.33579 11.5858 6 12 6C12.4142 6 12.75 6.33579 12.75 6.75V8.25003C12.75 8.66425 12.4142 9.00003 12 9.00003C11.5858 9.00003 11.25 8.66425 11.25 8.25003V6.75Z" fill="white"/>
<path d="M16.2785 8.21576C15.9856 7.92287 15.5108 7.92287 15.2179 8.21576L14.1572 9.27644C13.8643 9.56933 13.8643 10.0442 14.1572 10.3371C14.4501 10.63 14.925 10.63 15.2179 10.3371L16.2785 9.27642C16.5714 8.98353 16.5714 8.50865 16.2785 8.21576Z" fill="white"/>
<path d="M8.78033 8.21576C8.48744 7.92287 8.01256 7.92287 7.71967 8.21576C7.42678 8.50865 7.42678 8.98353 7.71967 9.27642L8.78035 10.3371C9.07325 10.63 9.54812 10.63 9.84101 10.3371C10.1339 10.0442 10.1339 9.56933 9.84101 9.27644L8.78033 8.21576Z" fill="white"/>
<path d="M12 2.00195C16.0041 2.00195 19.25 5.24788 19.25 9.25195C19.25 11.348 18.3493 13.2717 16.5869 14.9939C16.51 15.0691 16.4504 15.1596 16.4118 15.2592L16.3804 15.3615L15.2493 20.2571C15.0266 21.221 14.2035 21.9193 13.2302 21.994L13.057 22.0006H10.9433C9.95374 22.0006 9.08791 21.3555 8.79629 20.4238L8.75088 20.2565L7.62132 15.3617C7.58904 15.2218 7.51728 15.0941 7.41456 14.9938C5.73515 13.3536 4.83778 11.5307 4.75613 9.5502L4.75 9.25195L4.75388 9.01263C4.88014 5.11934 8.07601 2.00195 12 2.00195ZM14.115 18.5H9.884L10.2125 19.9192C10.2831 20.2255 10.5357 20.4514 10.8401 20.4935L10.9433 20.5006H13.057C13.3713 20.5006 13.6481 20.3054 13.7577 20.0184L13.7878 19.9194L14.115 18.5ZM12 3.50195C8.89821 3.50195 6.37006 5.95796 6.25415 9.03139L6.25 9.25195L6.25672 9.52896C6.33286 11.0923 7.05722 12.5481 8.46262 13.9207C8.72675 14.1787 8.92265 14.497 9.03422 14.847L9.08291 15.0245L9.538 17H11.25V10.7513C11.25 10.3371 11.5858 10.0013 12 10.0013C12.4142 10.0013 12.75 10.3371 12.75 10.7513V17H14.461L14.9189 15.0238C15.0019 14.6644 15.1718 14.3319 15.4124 14.0549L15.5386 13.9211C16.9432 12.5485 17.6672 11.0926 17.7433 9.529L17.75 9.25195L17.7458 9.03139C17.6299 5.95796 15.1018 3.50195 12 3.50195Z" fill="white"/>
</svg>
